<svg xmlns="http://www.w3.org/2000/svg" xml:space="preserve" viewBox="0 0 24 24"><path fill="#b293f0" d="M4.5 3h15c.8 0 1.5.7 1.5 1.5v15c0 .8-.7 1.5-1.5 1.5h-15c-.8 0-1.5-.7-1.5-1.5v-15C3 3.7 3.7 3 4.5 3z"/><path d="M19.5 3c.8 0 1.5.7 1.5 1.5v15c0 .8-.7 1.5-1.5 1.5h-15c-.8 0-1.5-.7-1.5-1.5v-15C3 3.7 3.7 3 4.5 3h15m0-3h-15C2 0 0 2 0 4.5v15C0 22 2 24 4.5 24h15c2.5 0 4.5-2 4.5-4.5v-15C24 2 22 0 19.5 0z" fill="#1e0036"/><path d="M6 8h12v2H6zM6 14h12v2H6z" fill="#1e0036"/><path d="M10 6v12H8V6zM15.9857 6.0857v12h-2v-12z" fill="#1e0036"/></svg>